<svg width="24" height="24" viewBox="0 0 24 24" fill="none" xmlns="http://www.w3.org/2000/svg">
<path d="M12.9906 2.15021C15.3706 1.69021 17.9406 2.38021 19.7906 4.22021C22.7406 7.17021 22.7406 11.9802 19.7906 14.9202C17.7306 16.9702 14.7806 17.6002 12.1906 16.7902L7.48063 21.4902C7.14063 21.8402 6.47063 22.0502 5.99063 21.9802L3.81063 21.6802C3.09063 21.5802 2.42063 20.9002 2.31063 20.1802L2.01063 18.0002C1.94063 17.5202 2.17063 16.8502 2.50063 16.5102L3.62063 15.3902L7.19063 11.8202C6.39063 9.22021 7.01063 6.27021 9.07063 4.22021" stroke="#292D32" stroke-width="1.5" stroke-miterlimit="10" stroke-linecap="round" stroke-linejoin="round"/>
<path d="M6.89062 17.4902L9.19062 19.7902" stroke="#292D32" stroke-width="1.5" stroke-miterlimit="10" stroke-linecap="round" stroke-linejoin="round"/>
<path d="M14.5 11C15.3284 11 16 10.3284 16 9.5C16 8.67157 15.3284 8 14.5 8C13.6716 8 13 8.67157 13 9.5C13 10.3284 13.6716 11 14.5 11Z" stroke="#292D32" stroke-width="1.5" stroke-linecap="round" stroke-linejoin="round"/>
</svg>
