<svg xmlns="http://www.w3.org/2000/svg" xmlns:xlink="http://www.w3.org/1999/xlink">
	<defs>
		<!-- Search -->
		<symbol viewBox="0 0 24 24" id="search-linear">
			<title>
				search linear
			</title>
			<path d="M11.5 21.75C5.85 21.75 1.25 17.15 1.25 11.5C1.25 5.85 5.85 1.25 11.5 1.25C17.15 1.25 21.75 5.85 21.75 11.5C21.75 17.15 17.15 21.75 11.5 21.75ZM11.5 2.75C6.67 2.75 2.75 6.68 2.75 11.5C2.75 16.32 6.67 20.25 11.5 20.25C16.33 20.25 20.25 16.32 20.25 11.5C20.25 6.68 16.33 2.75 11.5 2.75Z" stroke="none" />
			<path d="M21.9995 22.7499C21.8095 22.7499 21.6195 22.6799 21.4695 22.5299L19.4695 20.5299C19.1795 20.2399 19.1795 19.7599 19.4695 19.4699C19.7595 19.1799 20.2395 19.1799 20.5295 19.4699L22.5295 21.4699C22.8195 21.7599 22.8195 22.2399 22.5295 22.5299C22.3795 22.6799 22.1895 22.7499 21.9995 22.7499Z" stroke="none" />
		</symbol>
		<!-- phone -->
		<symbol viewBox="0 0 24 24" id="phone-break">
			<title>
				phone break
			</title>
			<path d="M11.05 14.95L9.2 16.8C8.81 17.19 8.19 17.19 7.79 16.81C7.68 16.7 7.57 16.6 7.46 16.49C6.43 15.45 5.5 14.36 4.67 13.22C3.85 12.08 3.19 10.94 2.71 9.81C2.24 8.67 2 7.58 2 6.54C2 5.86 2.12 5.21 2.36 4.61C2.6 4 2.98 3.44 3.51 2.94C4.15 2.31 4.85 2 5.59 2C5.87 2 6.15 2.06 6.4 2.18C6.66 2.3 6.89 2.48 7.07 2.74L9.39 6.01C9.57 6.26 9.7 6.49 9.79 6.71C9.88 6.92 9.93 7.13 9.93 7.32C9.93 7.56 9.86 7.8 9.72 8.03C9.59 8.26 9.4 8.5 9.16 8.74L8.4 9.53C8.29 9.64 8.24 9.77 8.24 9.93C8.24 10.01 8.25 10.08 8.27 10.16C8.3 10.24 8.33 10.3 8.35 10.36C8.53 10.69 8.84 11.12 9.28 11.64C9.73 12.16 10.21 12.69 10.73 13.22C10.83 13.32 10.94 13.42 11.04 13.52C11.44 13.91 11.45 14.55 11.05 14.95Z" stroke="none" />
			<path d="M21.9696 18.33C21.9696 18.61 21.9196 18.9 21.8196 19.18C21.7896 19.26 21.7596 19.34 21.7196 19.42C21.5496 19.78 21.3296 20.12 21.0396 20.44C20.5496 20.98 20.0096 21.37 19.3996 21.62C19.3896 21.62 19.3796 21.63 19.3696 21.63C18.7796 21.87 18.1396 22 17.4496 22C16.4296 22 15.3396 21.76 14.1896 21.27C13.0396 20.78 11.8896 20.12 10.7496 19.29C10.3596 19 9.96961 18.71 9.59961 18.4L12.8696 15.13C13.1496 15.34 13.3996 15.5 13.6096 15.61C13.6596 15.63 13.7196 15.66 13.7896 15.69C13.8696 15.72 13.9496 15.73 14.0396 15.73C14.2096 15.73 14.3396 15.67 14.4496 15.56L15.2096 14.81C15.4596 14.56 15.6996 14.37 15.9296 14.25C16.1596 14.11 16.3896 14.04 16.6396 14.04C16.8296 14.04 17.0296 14.08 17.2496 14.17C17.4696 14.26 17.6996 14.39 17.9496 14.56L21.2596 16.91C21.5196 17.09 21.6996 17.3 21.8096 17.55C21.9096 17.8 21.9696 18.05 21.9696 18.33Z" stroke="none" />
		</symbol>
		<!-- instagram -->
		<symbol viewBox="0 0 24 24" id="instagram-bold">
			<title>
				instagram bold
			</title>
			<path d="M16.19 2H7.81C4.17 2 2 4.17 2 7.81V16.18C2 19.83 4.17 22 7.81 22H16.18C19.82 22 21.99 19.83 21.99 16.19V7.81C22 4.17 19.83 2 16.19 2ZM12 15.88C9.86 15.88 8.12 14.14 8.12 12C8.12 9.86 9.86 8.12 12 8.12C14.14 8.12 15.88 9.86 15.88 12C15.88 14.14 14.14 15.88 12 15.88ZM17.92 6.88C17.87 7 17.8 7.11 17.71 7.21C17.61 7.3 17.5 7.37 17.38 7.42C17.26 7.47 17.13 7.5 17 7.5C16.73 7.5 16.48 7.4 16.29 7.21C16.2 7.11 16.13 7 16.08 6.88C16.03 6.76 16 6.63 16 6.5C16 6.37 16.03 6.24 16.08 6.12C16.13 5.99 16.2 5.89 16.29 5.79C16.52 5.56 16.87 5.45 17.19 5.52C17.26 5.53 17.32 5.55 17.38 5.58C17.44 5.6 17.5 5.63 17.56 5.67C17.61 5.7 17.66 5.75 17.71 5.79C17.8 5.89 17.87 5.99 17.92 6.12C17.97 6.24 18 6.37 18 6.5C18 6.63 17.97 6.76 17.92 6.88Z" stroke="none" />
		</symbol>
		<!-- whatsapp -->
		<symbol viewBox="0 0 24 24" id="whatsapp-bold">
			<title>
				whatsapp bold
			</title>
			<path d="M21.9803 11.41C21.6403 5.60995 16.3703 1.13996 10.3003 2.13996C6.12029 2.82996 2.77029 6.21994 2.12029 10.3999C1.74029 12.8199 2.24031 15.1099 3.33031 16.9999L2.4403 20.3099C2.2403 21.0599 2.93028 21.7399 3.67028 21.5299L6.93029 20.63C8.41029 21.5 10.1403 21.9999 11.9903 21.9999C17.6303 21.9999 22.3103 17.03 21.9803 11.41ZM16.8803 15.7199C16.7903 15.8999 16.6803 16.07 16.5403 16.23C16.2903 16.5 16.0203 16.7 15.7203 16.82C15.4203 16.95 15.0903 17.01 14.7403 17.01C14.2303 17.01 13.6803 16.89 13.1103 16.64C12.5303 16.39 11.9603 16.0599 11.3903 15.6499C10.8103 15.2299 10.2703 14.7599 9.7503 14.2499C9.2303 13.7299 8.77027 13.1799 8.35027 12.6099C7.94027 12.0399 7.61029 11.4699 7.37029 10.8999C7.13029 10.3299 7.01031 9.77996 7.01031 9.25996C7.01031 8.91996 7.0703 8.58996 7.1903 8.28996C7.3103 7.97996 7.50032 7.69996 7.77032 7.44996C8.09032 7.12996 8.4403 6.97996 8.8103 6.97996C8.95029 6.97996 9.09027 7.00995 9.22027 7.06995C9.35027 7.12995 9.47029 7.21995 9.5603 7.34995L10.7203 8.98994C10.8103 9.11994 10.8803 9.22994 10.9203 9.33994C10.9703 9.44994 10.9903 9.54994 10.9903 9.64994C10.9903 9.76994 10.9503 9.88996 10.8803 10.01C10.8103 10.13 10.7203 10.2499 10.6003 10.3699L10.2203 10.7699C10.1603 10.8299 10.1403 10.8899 10.1403 10.9699C10.1403 11.0099 10.1503 11.0499 10.1603 11.0899C10.1803 11.1299 10.1903 11.16 10.2003 11.1899C10.2903 11.36 10.4503 11.5699 10.6703 11.8299C10.9003 12.0899 11.1403 12.3599 11.4003 12.6199C11.6703 12.8899 11.9303 13.1299 12.2003 13.3599C12.4603 13.5799 12.6803 13.73 12.8503 13.82C12.8803 13.83 12.9103 13.8499 12.9403 13.8599C12.9803 13.8799 13.0203 13.88 13.0703 13.88C13.1603 13.88 13.2203 13.85 13.2803 13.79L13.6603 13.41C13.7903 13.28 13.9103 13.19 14.0203 13.13C14.1403 13.06 14.2503 13.0199 14.3803 13.0199C14.4803 13.0199 14.5803 13.0399 14.6903 13.0899C14.8003 13.1399 14.9203 13.2 15.0403 13.29L16.7003 14.4699C16.8303 14.5599 16.9203 14.67 16.9803 14.79C17.0303 14.92 17.0603 15.0399 17.0603 15.1799C17.0003 15.3499 16.9603 15.5399 16.8803 15.7199Z" stroke="none" />
		</symbol>
		<!-- telegram -->
		<symbol viewBox="0 0 24 24" id="telegram-bold">
			<title>
				telegram bold
			</title>
			<path d="M12 2C6.48 2 2 6.48 2 12C2 17.52 6.48 22 12 22C17.52 22 22 17.52 22 12C22 6.48 17.52 2 12 2ZM16.64 8.8C16.49 10.38 15.84 14.22 15.51 15.99C15.37 16.74 15.09 16.99 14.83 17.02C14.25 17.07 13.81 16.64 13.25 16.27C12.37 15.69 11.87 15.33 11.02 14.77C10.03 14.12 10.67 13.76 11.24 13.18C11.39 13.03 13.95 10.7 14 10.49C14.0069 10.4582 14.006 10.4252 13.9973 10.3938C13.9886 10.3624 13.9724 10.3337 13.95 10.31C13.89 10.26 13.81 10.28 13.74 10.29C13.65 10.31 12.25 11.24 9.52 13.08C9.12 13.35 8.76 13.49 8.44 13.48C8.08 13.47 7.4 13.28 6.89 13.11C6.26 12.91 5.77 12.8 5.81 12.45C5.83 12.27 6.08 12.09 6.55 11.9C9.47 10.63 11.41 9.79 12.38 9.39C15.16 8.23 15.73 8.03 16.11 8.03C16.19 8.03 16.38 8.05 16.5 8.15C16.6 8.23 16.63 8.34 16.64 8.42C16.63 8.48 16.65 8.66 16.64 8.8Z" stroke="none" />
		</symbol>
		<!-- menu -->
		<symbol viewBox="0 0 24 24" id="menu-linear">
			<title>
				menu linear
			</title>
			<path d="M3 7H21" fill="none" stroke-width="1.5" stroke-linecap="round" />
			<path d="M3 12H21" fill="none" stroke-width="1.5" stroke-linecap="round" />
			<path d="M3 17H21" fill="none" stroke-width="1.5" stroke-linecap="round" />
		</symbol>
		<!-- shopping cart -->
		<symbol viewBox="0 0 24 24" id="shopping-cart-bold">
			<title>
				shopping cart bold
			</title>
			<path d="M16.25 22.5C17.2165 22.5 18 21.7165 18 20.75C18 19.7835 17.2165 19 16.25 19C15.2835 19 14.5 19.7835 14.5 20.75C14.5 21.7165 15.2835 22.5 16.25 22.5Z" stroke="none" />
			<path d="M8.25 22.5C9.2165 22.5 10 21.7165 10 20.75C10 19.7835 9.2165 19 8.25 19C7.2835 19 6.5 19.7835 6.5 20.75C6.5 21.7165 7.2835 22.5 8.25 22.5Z" stroke="none" />
			<path d="M4.84 3.94L4.64 6.39C4.6 6.86 4.97 7.25 5.44 7.25H20.75C21.17 7.25 21.52 6.93 21.55 6.51C21.68 4.74 20.33 3.3 18.56 3.3H6.27C6.17 2.86 5.97 2.44 5.66 2.09C5.16 1.56 4.46 1.25 3.74 1.25H2C1.59 1.25 1.25 1.59 1.25 2C1.25 2.41 1.59 2.75 2 2.75H3.74C4.05 2.75 4.34 2.88 4.55 3.1C4.76 3.33 4.86 3.63 4.84 3.94Z" stroke="none" />
			<path d="M20.5101 8.75H5.17005C4.75005 8.75 4.41005 9.07 4.37005 9.48L4.01005 13.83C3.87005 15.54 5.21005 17 6.92005 17H18.0401C19.5401 17 20.8601 15.77 20.9701 14.27L21.3001 9.6C21.3401 9.14 20.9801 8.75 20.5101 8.75Z" stroke="none" />
		</symbol>
		<symbol viewBox="0 0 24 24" id="shopping-cart-twotone">
			<title>
				shopping cart twotone
			</title>
			<path d="M16.25 22.5C17.2165 22.5 18 21.7165 18 20.75C18 19.7835 17.2165 19 16.25 19C15.2835 19 14.5 19.7835 14.5 20.75C14.5 21.7165 15.2835 22.5 16.25 22.5Z" fill="#154160" />
			<path d="M8.25 22.5C9.2165 22.5 10 21.7165 10 20.75C10 19.7835 9.2165 19 8.25 19C7.2835 19 6.5 19.7835 6.5 20.75C6.5 21.7165 7.2835 22.5 8.25 22.5Z" fill="#154160" />
			<path opacity="0.4" d="M4.84 3.94L4.64 6.39C4.6 6.86 4.97 7.25 5.44 7.25H20.75C21.17 7.25 21.52 6.92999 21.55 6.50999C21.68 4.73999 20.33 3.3 18.56 3.3H6.28999C6.18999 2.86 5.98999 2.44 5.67999 2.09C5.18999 1.56 4.49 1.25 3.77 1.25H2C1.59 1.25 1.25 1.59 1.25 2C1.25 2.41 1.59 2.75 2 2.75H3.74001C4.05001 2.75 4.34 2.88001 4.55 3.10001C4.76 3.33001 4.86 3.63 4.84 3.94Z" fill="#154160" />
			<path d="M20.5101 8.75H5.17006C4.75006 8.75 4.41005 9.07 4.37005 9.48L4.01005 13.83C3.87005 15.53 5.21006 17 6.92006 17H18.0401C19.5401 17 20.8601 15.77 20.9701 14.27L21.3001 9.60001C21.3401 9.14001 20.9801 8.75 20.5101 8.75Z" fill="#154160" />
		</symbol>
		<!-- profile -->
		<symbol viewBox="0 0 24 24" id="profile-twotone">
			<title>
				profile twotone
			</title>
			<path opacity="0.4" d="M12 2C9.38 2 7.25 4.13 7.25 6.75C7.25 9.32 9.26 11.4 11.88 11.49C11.96 11.48 12.04 11.48 12.1 11.49C12.12 11.49 12.13 11.49 12.15 11.49C12.16 11.49 12.16 11.49 12.17 11.49C14.73 11.4 16.74 9.32 16.75 6.75C16.75 4.13 14.62 2 12 2Z" fill="#292D32" />
			<path d="M17.0809 14.1499C14.2909 12.2899 9.74094 12.2899 6.93094 14.1499C5.66094 14.9999 4.96094 16.1499 4.96094 17.3799C4.96094 18.6099 5.66094 19.7499 6.92094 20.5899C8.32094 21.5299 10.1609 21.9999 12.0009 21.9999C13.8409 21.9999 15.6809 21.5299 17.0809 20.5899C18.3409 19.7399 19.0409 18.5999 19.0409 17.3599C19.0309 16.1299 18.3409 14.9899 17.0809 14.1499Z" fill="#154160" />
		</symbol>
		<!-- arrows -->
		<symbol viewBox="0 0 24 24" id="circle-filled-arrow-left">
			<title>
				circle filled arrow left
			</title>
			<path d="M12 2C6.49 2 2 6.49 2 12C2 17.51 6.49 22 12 22C17.51 22 22 17.51 22 12C22 6.49 17.51 2 12 2ZM13.79 15C14.08 15.29 14.08 15.77 13.79 16.06C13.64 16.21 13.45 16.28 13.26 16.28C13.07 16.28 12.88 16.21 12.73 16.06L9.2 12.53C8.91 12.24 8.91 11.76 9.2 11.47L12.73 7.94C13.02 7.65 13.5 7.65 13.79 7.94C14.08 8.23 14.08 8.71 13.79 9L10.79 12L13.79 15Z" stroke="none" />
		</symbol>
		<symbol viewBox="0 0 24 24" id="arrow-down">
			<title>
				arrow down
			</title>
			<path d="M11.9995 16.8001C11.2995 16.8001 10.5995 16.5301 10.0695 16.0001L3.54953 9.48014C3.25953 9.19014 3.25953 8.71014 3.54953 8.42014C3.83953 8.13014 4.31953 8.13014 4.60953 8.42014L11.1295 14.9401C11.6095 15.4201 12.3895 15.4201 12.8695 14.9401L19.3895 8.42014C19.6795 8.13014 20.1595 8.13014 20.4495 8.42014C20.7395 8.71014 20.7395 9.19014 20.4495 9.48014L13.9295 16.0001C13.3995 16.5301 12.6995 16.8001 11.9995 16.8001Z" stroke="none" />
		</symbol>
		<symbol viewBox="0 0 24 24" id="arrow-left">
			<title>
				arrow left
			</title>
			<path d="M14.9998 19.9201L8.47984 13.4001C7.70984 12.6301 7.70984 11.3701 8.47984 10.6001L14.9998 4.08008" fill="none" stroke-width="1.5" stroke-miterlimit="10" stroke-linecap="round" stroke-linejoin="round" />
		</symbol>
		<!-- tag -->
		<symbol viewBox="0 0 24 24" id="tag-outline">
			<title>
				tag outline
			</title>
			<path d="M12.0691 21.9802C10.6591 21.9802 9.23911 21.4402 8.16911 20.3702L3.63911 15.8402C2.53911 14.7402 1.95911 13.2202 2.02911 11.6702L2.26911 6.67018C2.37911 4.28018 4.26911 2.39018 6.66911 2.27018L11.6691 2.03018C13.2191 1.97018 14.7391 2.54018 15.8391 3.64018L20.3691 8.17018C22.5191 10.3202 22.5191 13.8302 20.3691 15.9802L15.9791 20.3702C14.8991 21.4402 13.4891 21.9802 12.0691 21.9802ZM4.69911 14.7702L9.22911 19.3002C9.98911 20.0602 10.9991 20.4802 12.0691 20.4802C13.1391 20.4802 14.1491 20.0602 14.9091 19.3002L19.2991 14.9102C20.0591 14.1502 20.4791 13.1402 20.4791 12.0702C20.4791 11.0002 20.0591 9.99018 19.2991 9.23018L14.7691 4.70018C13.9691 3.90018 12.8591 3.47018 11.7391 3.53018L6.73911 3.77018C5.10911 3.84018 3.83911 5.11018 3.75911 6.73018L3.51911 11.7302C3.46911 12.8602 3.89911 13.9702 4.69911 14.7702Z" stroke="none" />
			<path d="M9.5 12.75C7.71 12.75 6.25 11.29 6.25 9.5C6.25 7.71 7.71 6.25 9.5 6.25C11.29 6.25 12.75 7.71 12.75 9.5C12.75 11.29 11.29 12.75 9.5 12.75ZM9.5 7.75C8.54 7.75 7.75 8.54 7.75 9.5C7.75 10.46 8.54 11.25 9.5 11.25C10.46 11.25 11.25 10.46 11.25 9.5C11.25 8.54 10.46 7.75 9.5 7.75Z" stroke="none" />
		</symbol>
		<!-- tag -->
		<symbol viewBox="0 0 24 24" id="minus-outline">
			<title>
				minus outline
			</title>
			<path d="M18 12.75H6C5.59 12.75 5.25 12.41 5.25 12C5.25 11.59 5.59 11.25 6 11.25H18C18.41 11.25 18.75 11.59 18.75 12C18.75 12.41 18.41 12.75 18 12.75Z" stroke="none" />
		</symbol>
		<!-- plus -->
		<symbol viewBox="0 0 24 24" id="plus-outline">
			<title>
				plus outline
			</title>
			<path d="M18 12.75H6C5.59 12.75 5.25 12.41 5.25 12C5.25 11.59 5.59 11.25 6 11.25H18C18.41 11.25 18.75 11.59 18.75 12C18.75 12.41 18.41 12.75 18 12.75Z" stroke="none" />
			<path d="M12 18.75C11.59 18.75 11.25 18.41 11.25 18V6C11.25 5.59 11.59 5.25 12 5.25C12.41 5.25 12.75 5.59 12.75 6V18C12.75 18.41 12.41 18.75 12 18.75Z" stroke="none" />
		</symbol>
		<!-- categories -->
		<symbol viewBox="0 0 24 24" id="categories-outline">
			<title>
				categories outline
			</title>
			<path d="M22 10.9V4.1C22 2.6 21.36 2 19.77 2H15.73C14.14 2 13.5 2.6 13.5 4.1V10.9C13.5 12.4 14.14 13 15.73 13H19.77C21.36 13 22 12.4 22 10.9Z" fill="none" stroke-width="1.5" stroke-linecap="round" stroke-linejoin="round" />
			<path d="M22 19.9V18.1C22 16.6 21.36 16 19.77 16H15.73C14.14 16 13.5 16.6 13.5 18.1V19.9C13.5 21.4 14.14 22 15.73 22H19.77C21.36 22 22 21.4 22 19.9Z" fill="none" stroke-width="1.5" stroke-linecap="round" stroke-linejoin="round" />
			<path d="M10.5 13.1V19.9C10.5 21.4 9.86 22 8.27 22H4.23C2.64 22 2 21.4 2 19.9V13.1C2 11.6 2.64 11 4.23 11H8.27C9.86 11 10.5 11.6 10.5 13.1Z" fill="none" stroke-width="1.5" stroke-linecap="round" stroke-linejoin="round" />
			<path d="M10.5 4.1V5.9C10.5 7.4 9.86 8 8.27 8H4.23C2.64 8 2 7.4 2 5.9V4.1C2 2.6 2.64 2 4.23 2H8.27C9.86 2 10.5 2.6 10.5 4.1Z" fill="none" stroke-width="1.5" stroke-linecap="round" stroke-linejoin="round" />
		</symbol>
		<symbol viewBox="0 0 24 24" id="categories-twotone">
			<title>
				categories twotone
			</title>
			<path d="M21.5 10.9V4.1C21.5 2.6 20.86 2 19.27 2H15.23C13.64 2 13 2.6 13 4.1V10.9C13 12.4 13.64 13 15.23 13H19.27C20.86 13 21.5 12.4 21.5 10.9Z" fill="#6F899B" stroke="none" />
			<path d="M11 13.1V19.9C11 21.4 10.36 22 8.77 22H4.73C3.14 22 2.5 21.4 2.5 19.9V13.1C2.5 11.6 3.14 11 4.73 11H8.77C10.36 11 11 11.6 11 13.1Z" fill="#6F899B" stroke="none" />
			<path opacity="0.4" d="M21.5 19.9V17.1C21.5 15.6 20.86 15 19.27 15H15.23C13.64 15 13 15.6 13 17.1V19.9C13 21.4 13.64 22 15.23 22H19.27C20.86 22 21.5 21.4 21.5 19.9Z" fill="#6F899B" stroke="none" />
			<path opacity="0.4" d="M11 6.9V4.1C11 2.6 10.36 2 8.77 2H4.73C3.14 2 2.5 2.6 2.5 4.1V6.9C2.5 8.4 3.14 9 4.73 9H8.77C10.36 9 11 8.4 11 6.9Z" fill="#6F899B" stroke="none" />
		</symbol>
		<symbol viewBox="0 0 24 24" id="categories-bold">
			<title>
				categories bold
			</title>
			<path d="M21.5 10.9V4.1C21.5 2.6 20.86 2 19.27 2H15.23C13.64 2 13 2.6 13 4.1V10.9C13 12.4 13.64 13 15.23 13H19.27C20.86 13 21.5 12.4 21.5 10.9Z" stroke="none" />
			<path d="M11 13.1V19.9C11 21.4 10.36 22 8.77 22H4.73C3.14 22 2.5 21.4 2.5 19.9V13.1C2.5 11.6 3.14 11 4.73 11H8.77C10.36 11 11 11.6 11 13.1Z" stroke="none" />
			<path opacity="0.4" d="M21.5 19.9V17.1C21.5 15.6 20.86 15 19.27 15H15.23C13.64 15 13 15.6 13 17.1V19.9C13 21.4 13.64 22 15.23 22H19.27C20.86 22 21.5 21.4 21.5 19.9Z" stroke="none" />
			<path opacity="0.4" d="M11 6.9V4.1C11 2.6 10.36 2 8.77 2H4.73C3.14 2 2.5 2.6 2.5 4.1V6.9C2.5 8.4 3.14 9 4.73 9H8.77C10.36 9 11 8.4 11 6.9Z" stroke="none" />
		</symbol>
		<!-- discount -->
		<symbol viewBox="0 0 24 24" id="discount-outline">
			<title>
				discount outline
			</title>
			<path d="M12 22.7498C11.37 22.7498 10.78 22.5099 10.34 22.0599L8.82001 20.5399C8.70001 20.4199 8.38 20.2899 8.22 20.2899H6.06C4.76 20.2899 3.70999 19.2398 3.70999 17.9398V15.7799C3.70999 15.6199 3.57999 15.2999 3.45999 15.1799L1.94 13.6599C1.5 13.2199 1.25 12.6298 1.25 11.9998C1.25 11.3698 1.49 10.7798 1.94 10.3398L3.45999 8.81979C3.57999 8.69979 3.70999 8.37981 3.70999 8.21981V6.0599C3.70999 4.7599 4.76 3.7098 6.06 3.7098H8.22C8.38 3.7098 8.70001 3.5798 8.82001 3.4598L10.34 1.93979C11.22 1.05979 12.78 1.05979 13.66 1.93979L15.18 3.4598C15.3 3.5798 15.62 3.7098 15.78 3.7098H17.94C19.24 3.7098 20.29 4.7599 20.29 6.0599V8.21981C20.29 8.37981 20.42 8.69979 20.54 8.81979L22.06 10.3398C22.5 10.7798 22.75 11.3698 22.75 11.9998C22.75 12.6298 22.51 13.2199 22.06 13.6599L20.54 15.1799C20.42 15.2999 20.29 15.6199 20.29 15.7799V17.9398C20.29 19.2398 19.24 20.2899 17.94 20.2899H15.78C15.62 20.2899 15.3 20.4199 15.18 20.5399L13.66 22.0599C13.22 22.5099 12.63 22.7498 12 22.7498ZM4.51999 14.1198C4.91999 14.5198 5.20999 15.2199 5.20999 15.7799V17.9398C5.20999 18.4098 5.59 18.7899 6.06 18.7899H8.22C8.78 18.7899 9.48001 19.0798 9.88 19.4798L11.4 20.9998C11.72 21.3198 12.28 21.3198 12.6 20.9998L14.12 19.4798C14.52 19.0798 15.22 18.7899 15.78 18.7899H17.94C18.41 18.7899 18.79 18.4098 18.79 17.9398V15.7799C18.79 15.2199 19.08 14.5198 19.48 14.1198L21 12.5998C21.16 12.4398 21.25 12.2298 21.25 11.9998C21.25 11.7698 21.16 11.5599 21 11.3999L19.48 9.87985C19.08 9.47985 18.79 8.77981 18.79 8.21981V6.0599C18.79 5.5899 18.41 5.2098 17.94 5.2098H15.78C15.22 5.2098 14.52 4.91986 14.12 4.51986L12.6 2.99984C12.28 2.67984 11.72 2.67984 11.4 2.99984L9.88 4.51986C9.48001 4.91986 8.78 5.2098 8.22 5.2098H6.06C5.59 5.2098 5.20999 5.5899 5.20999 6.0599V8.21981C5.20999 8.77981 4.91999 9.47985 4.51999 9.87985L3 11.3999C2.84 11.5599 2.75 11.7698 2.75 11.9998C2.75 12.2298 2.84 12.4398 3 12.5998L4.51999 14.1198Z" stroke="none" />
			<path d="M15.0002 16C14.4402 16 13.9902 15.55 13.9902 15C13.9902 14.45 14.4402 14 14.9902 14C15.5402 14 15.9902 14.45 15.9902 15C15.9902 15.55 15.5502 16 15.0002 16Z" stroke="none" />
			<path d="M9.01001 10C8.45001 10 8 9.55 8 9C8 8.45 8.45 8 9 8C9.55 8 10 8.45 10 9C10 9.55 9.56001 10 9.01001 10Z" stroke="none" />
			<path d="M8.99945 15.75C8.80945 15.75 8.61945 15.68 8.46945 15.53C8.17945 15.24 8.17945 14.7599 8.46945 14.4699L14.4695 8.46994C14.7595 8.17994 15.2395 8.17994 15.5295 8.46994C15.8195 8.75994 15.8195 9.24 15.5295 9.53L9.52945 15.53C9.37945 15.68 9.18945 15.75 8.99945 15.75Z" stroke="none" />
		</symbol>
		<!-- phone -->
		<symbol viewBox="0 0 24 24" id="phone-broken">
			<title>
				phone broken
			</title>
			<path d="M11.05 14.95L9.2 16.8C8.81 17.19 8.19 17.19 7.79 16.81C7.68 16.7 7.57 16.6 7.46 16.49C6.43 15.45 5.5 14.36 4.67 13.22C3.85 12.08 3.19 10.94 2.71 9.81C2.24 8.67 2 7.58 2 6.54C2 5.86 2.12 5.21 2.36 4.61C2.6 4 2.98 3.44 3.51 2.94C4.15 2.31 4.85 2 5.59 2C5.87 2 6.15 2.06 6.4 2.18C6.66 2.3 6.89 2.48 7.07 2.74L9.39 6.01C9.57 6.26 9.7 6.49 9.79 6.71C9.88 6.92 9.93 7.13 9.93 7.32C9.93 7.56 9.86 7.8 9.72 8.03C9.59 8.26 9.4 8.5 9.16 8.74L8.4 9.53C8.29 9.64 8.24 9.77 8.24 9.93C8.24 10.01 8.25 10.08 8.27 10.16C8.3 10.24 8.33 10.3 8.35 10.36C8.53 10.69 8.84 11.12 9.28 11.64C9.73 12.16 10.21 12.69 10.73 13.22C10.83 13.32 10.94 13.42 11.04 13.52C11.44 13.91 11.45 14.55 11.05 14.95Z" stroke="none" />
			<path d="M21.9696 18.33C21.9696 18.61 21.9196 18.9 21.8196 19.18C21.7896 19.26 21.7596 19.34 21.7196 19.42C21.5496 19.78 21.3296 20.12 21.0396 20.44C20.5496 20.98 20.0096 21.37 19.3996 21.62C19.3896 21.62 19.3796 21.63 19.3696 21.63C18.7796 21.87 18.1396 22 17.4496 22C16.4296 22 15.3396 21.76 14.1896 21.27C13.0396 20.78 11.8896 20.12 10.7496 19.29C10.3596 19 9.96961 18.71 9.59961 18.4L12.8696 15.13C13.1496 15.34 13.3996 15.5 13.6096 15.61C13.6596 15.63 13.7196 15.66 13.7896 15.69C13.8696 15.72 13.9496 15.73 14.0396 15.73C14.2096 15.73 14.3396 15.67 14.4496 15.56L15.2096 14.81C15.4596 14.56 15.6996 14.37 15.9296 14.25C16.1596 14.11 16.3896 14.04 16.6396 14.04C16.8296 14.04 17.0296 14.08 17.2496 14.17C17.4696 14.26 17.6996 14.39 17.9496 14.56L21.2596 16.91C21.5196 17.09 21.6996 17.3 21.8096 17.55C21.9096 17.8 21.9696 18.05 21.9696 18.33Z" stroke="none" />
		</symbol>
		<symbol viewBox="0 0 24 24" id="phone-broken-twotone">
			<title>
				phone broken twotone
			</title>
			<path opacity="0.4" d="M11.79 14.21L8.52 17.48C8.16 17.16 7.81 16.83 7.47 16.49C6.44 15.45 5.51 14.36 4.68 13.22C3.86 12.08 3.2 10.94 2.72 9.81C2.24 8.67 2 7.58 2 6.54C2 5.86 2.12 5.21 2.36 4.61C2.6 4 2.98 3.44 3.51 2.94C4.15 2.31 4.85 2 5.59 2C5.87 2 6.15 2.06 6.4 2.18C6.66 2.3 6.89 2.48 7.07 2.74L9.39 6.01C9.57 6.26 9.7 6.49 9.79 6.71C9.88 6.92 9.93 7.13 9.93 7.32C9.93 7.56 9.86 7.8 9.72 8.03C9.59 8.26 9.4 8.5 9.16 8.74L8.4 9.53C8.29 9.64 8.24 9.77 8.24 9.93C8.24 10.01 8.25 10.08 8.27 10.16C8.3 10.24 8.33 10.3 8.35 10.36C8.53 10.69 8.84 11.12 9.28 11.64C9.73 12.16 10.21 12.69 10.73 13.22C11.09 13.57 11.44 13.91 11.79 14.21Z" fill="#6F899B" />
			<path d="M21.9696 18.33C21.9696 18.61 21.9196 18.9 21.8196 19.18C21.7896 19.26 21.7596 19.34 21.7196 19.42C21.5496 19.78 21.3296 20.12 21.0396 20.44C20.5496 20.98 20.0096 21.37 19.3996 21.62C19.3896 21.62 19.3796 21.63 19.3696 21.63C18.7796 21.87 18.1396 22 17.4496 22C16.4296 22 15.3396 21.76 14.1896 21.27C13.0396 20.78 11.8896 20.12 10.7496 19.29C10.3596 19 9.96961 18.71 9.59961 18.4L12.8696 15.13C13.1496 15.34 13.3996 15.5 13.6096 15.61C13.6596 15.63 13.7196 15.66 13.7896 15.69C13.8696 15.72 13.9496 15.73 14.0396 15.73C14.2096 15.73 14.3396 15.67 14.4496 15.56L15.2096 14.81C15.4596 14.56 15.6996 14.37 15.9296 14.25C16.1596 14.11 16.3896 14.04 16.6396 14.04C16.8296 14.04 17.0296 14.08 17.2496 14.17C17.4696 14.26 17.6996 14.39 17.9496 14.56L21.2596 16.91C21.5196 17.09 21.6996 17.3 21.8096 17.55C21.9096 17.8 21.9696 18.05 21.9696 18.33Z" fill="#6F899B" />
		</symbol>
		<!-- home -->
		<symbol viewBox="0 0 24 24" id="home-bold">
			<title>
				home bold
			</title>
			<path d="M20.83 8.01002L14.28 2.77002C13 1.75002 11 1.74002 9.72996 2.76002L3.17996 8.01002C2.23996 8.76002 1.66996 10.26 1.86996 11.44L3.12996 18.98C3.41996 20.67 4.98996 22 6.69996 22H17.3C18.99 22 20.59 20.64 20.88 18.97L22.14 11.43C22.32 10.26 21.75 8.76002 20.83 8.01002ZM12.75 18C12.75 18.41 12.41 18.75 12 18.75C11.59 18.75 11.25 18.41 11.25 18V15C11.25 14.59 11.59 14.25 12 14.25C12.41 14.25 12.75 14.59 12.75 15V18Z" stroke="none" />
		</symbol>
		<symbol viewBox="0 0 24 24" id="home-twotone">
			<title>
				home twotone
			</title>
			<path opacity="0.4" d="M20.83 8.01002L14.28 2.77002C13 1.75002 11 1.74002 9.72996 2.76002L3.17996 8.01002C2.23996 8.76002 1.66996 10.26 1.86996 11.44L3.12996 18.98C3.41996 20.67 4.98996 22 6.69996 22H17.3C18.99 22 20.59 20.64 20.88 18.97L22.14 11.43C22.32 10.26 21.75 8.76002 20.83 8.01002Z" fill="#154160" />
			<path d="M12 18.75C11.59 18.75 11.25 18.41 11.25 18V15C11.25 14.59 11.59 14.25 12 14.25C12.41 14.25 12.75 14.59 12.75 15V18C12.75 18.41 12.41 18.75 12 18.75Z" fill="#154160" />
		</symbol>
		<!-- FAQ -->
		<symbol viewBox="0 0 24 24" id="faq-twotone">
			<title>
				faq twotone
			</title>
			<path opacity="0.4" d="M17 18.4302H13L8.54999 21.3902C7.88999 21.8302 7 21.3602 7 20.5602V18.4302C4 18.4302 2 16.4302 2 13.4302V7.43018C2 4.43018 4 2.43018 7 2.43018H17C20 2.43018 22 4.43018 22 7.43018V13.4302C22 16.4302 20 18.4302 17 18.4302Z" stroke="none" fill="#154160" />
			<path d="M11.9998 12.1099C11.5898 12.1099 11.2498 11.7699 11.2498 11.3599V11.1499C11.2498 9.9899 12.0998 9.41989 12.4198 9.19989C12.7898 8.94989 12.9098 8.7799 12.9098 8.5199C12.9098 8.0199 12.4998 7.60986 11.9998 7.60986C11.4998 7.60986 11.0898 8.0199 11.0898 8.5199C11.0898 8.9299 10.7498 9.2699 10.3398 9.2699C9.92984 9.2699 9.58984 8.9299 9.58984 8.5199C9.58984 7.1899 10.6698 6.10986 11.9998 6.10986C13.3298 6.10986 14.4098 7.1899 14.4098 8.5199C14.4098 9.6599 13.5698 10.2299 13.2598 10.4399C12.8698 10.6999 12.7498 10.8699 12.7498 11.1499V11.3599C12.7498 11.7799 12.4098 12.1099 11.9998 12.1099Z" fill="#154160" stroke="none" />
			<path d="M12 14.6001C11.58 14.6001 11.25 14.2601 11.25 13.8501C11.25 13.4401 11.59 13.1001 12 13.1001C12.41 13.1001 12.75 13.4401 12.75 13.8501C12.75 14.2601 12.42 14.6001 12 14.6001Z" fill="#154160" stroke="none" />
		</symbol>
		<symbol viewBox="0 0 24 24" id="faq-bold">
			<title>
				faq bold
			</title>
			<path d="M17 2.43018H7C4 2.43018 2 4.43018 2 7.43018V13.4302C2 16.4302 4 18.4302 7 18.4302V20.5602C7 21.3602 7.89 21.8402 8.55 21.3902L13 18.4302H17C20 18.4302 22 16.4302 22 13.4302V7.43018C22 4.43018 20 2.43018 17 2.43018ZM12 14.6002C11.58 14.6002 11.25 14.2602 11.25 13.8502C11.25 13.4402 11.58 13.1002 12 13.1002C12.42 13.1002 12.75 13.4402 12.75 13.8502C12.75 14.2602 12.42 14.6002 12 14.6002ZM13.26 10.4502C12.87 10.7102 12.75 10.8802 12.75 11.1602V11.3702C12.75 11.7802 12.41 12.1202 12 12.1202C11.59 12.1202 11.25 11.7802 11.25 11.3702V11.1602C11.25 10.0002 12.1 9.43018 12.42 9.21018C12.79 8.96018 12.91 8.79018 12.91 8.53018C12.91 8.03018 12.5 7.62018 12 7.62018C11.5 7.62018 11.09 8.03018 11.09 8.53018C11.09 8.94018 10.75 9.28018 10.34 9.28018C9.93 9.28018 9.59 8.94018 9.59 8.53018C9.59 7.20018 10.67 6.12018 12 6.12018C13.33 6.12018 14.41 7.20018 14.41 8.53018C14.41 9.67018 13.57 10.2402 13.26 10.4502Z" stroke="none" />
		</symbol>
		<!-- Task managment -->
		<symbol viewBox="0 0 24 24" id="task-twotone">
			<title>
				task twotone
			</title>
			<path opacity="0.4" d="M16.19 2H7.81C4.17 2 2 4.17 2 7.81V16.19C2 19.83 4.17 22 7.81 22H16.19C19.83 22 22 19.83 22 16.19V7.81C22 4.17 19.83 2 16.19 2Z" fill="#154160" />
			<path d="M18.3105 8.87012C18.3105 9.28012 17.9805 9.62012 17.5605 9.62012H12.3105C11.9005 9.62012 11.5605 9.28012 11.5605 8.87012C11.5605 8.46012 11.9005 8.12012 12.3105 8.12012H17.5605C17.9805 8.12012 18.3105 8.46012 18.3105 8.87012Z" fill="#154160" />
			<path d="M9.97055 7.90006L7.72055 10.1501C7.57055 10.3001 7.38055 10.3701 7.19055 10.3701C7.00055 10.3701 6.80055 10.3001 6.66055 10.1501L5.91055 9.40006C5.61055 9.11006 5.61055 8.63006 5.91055 8.34006C6.20055 8.05006 6.67055 8.05006 6.97055 8.34006L7.19055 8.56006L8.91055 6.84006C9.20055 6.55006 9.67055 6.55006 9.97055 6.84006C10.2605 7.13006 10.2605 7.61006 9.97055 7.90006Z" fill="#154160" />
			<path d="M18.3105 15.8701C18.3105 16.2801 17.9805 16.6201 17.5605 16.6201H12.3105C11.9005 16.6201 11.5605 16.2801 11.5605 15.8701C11.5605 15.4601 11.9005 15.1201 12.3105 15.1201H17.5605C17.9805 15.1201 18.3105 15.4601 18.3105 15.8701Z" fill="#154160" />
			<path d="M9.97055 14.9001L7.72055 17.1501C7.57055 17.3001 7.38055 17.3701 7.19055 17.3701C7.00055 17.3701 6.80055 17.3001 6.66055 17.1501L5.91055 16.4001C5.61055 16.1101 5.61055 15.6301 5.91055 15.3401C6.20055 15.0501 6.67055 15.0501 6.97055 15.3401L7.19055 15.5601L8.91055 13.8401C9.20055 13.5501 9.67055 13.5501 9.97055 13.8401C10.2605 14.1301 10.2605 14.6101 9.97055 14.9001Z" fill="#154160" />
		</symbol>
		<!-- mail -->
		<symbol viewBox="0 0 24 24" id="mail-outline">
			<title>
				mail outline
			</title>
			<path d="M17 21.25H7C3.35 21.25 1.25 19.15 1.25 15.5V8.5C1.25 4.85 3.35 2.75 7 2.75H17C20.65 2.75 22.75 4.85 22.75 8.5V15.5C22.75 19.15 20.65 21.25 17 21.25ZM7 4.25C4.14 4.25 2.75 5.64 2.75 8.5V15.5C2.75 18.36 4.14 19.75 7 19.75H17C19.86 19.75 21.25 18.36 21.25 15.5V8.5C21.25 5.64 19.86 4.25 17 4.25H7Z" stroke="none" />
			<path d="M11.9988 12.87C11.1588 12.87 10.3088 12.61 9.6588 12.08L6.5288 9.57997C6.2088 9.31997 6.14881 8.84997 6.4088 8.52997C6.66881 8.20997 7.13881 8.14997 7.45881 8.40997L10.5888 10.91C11.3488 11.52 12.6388 11.52 13.3988 10.91L16.5288 8.40997C16.8488 8.14997 17.3288 8.19997 17.5788 8.52997C17.8388 8.84997 17.7888 9.32997 17.4588 9.57997L14.3288 12.08C13.6888 12.61 12.8388 12.87 11.9988 12.87Z" stroke="none" />
		</symbol>
		<!-- password -->
		<symbol viewBox="0 0 24 24" id="key-outline">
			<title>
				key outline
			</title>
<path d="M6.17916 22.7499C6.07916 22.7499 5.96916 22.7399 5.87916 22.7299L3.70916 22.4299C2.66916 22.2899 1.72916 21.3599 1.56916 20.2999L1.26916 18.1099C1.16916 17.4099 1.46916 16.4999 1.96916 15.9899L6.35916 11.5999C5.64916 8.75992 6.46916 5.75992 8.55916 3.68992C11.7992 0.459923 17.0692 0.449923 20.3192 3.68992C21.8892 5.25992 22.7492 7.34992 22.7492 9.56992C22.7492 11.7899 21.8892 13.8799 20.3192 15.4499C18.2192 17.5299 15.2292 18.3499 12.4092 17.6299L8.00916 22.0199C7.58916 22.4599 6.83916 22.7499 6.17916 22.7499ZM14.4292 2.75992C12.6792 2.75992 10.9392 3.41992 9.60916 4.74992C7.80916 6.53992 7.15916 9.15992 7.90916 11.5999C7.98916 11.8699 7.91916 12.1499 7.71916 12.3499L3.01916 17.0499C2.84916 17.2199 2.70916 17.6599 2.73916 17.8899L3.03916 20.0799C3.09916 20.4599 3.50916 20.8899 3.88916 20.9399L6.06916 21.2399C6.30916 21.2799 6.74916 21.1399 6.91916 20.9699L11.6392 16.2599C11.8392 16.0599 12.1292 15.9999 12.3892 16.0799C14.7992 16.8399 17.4292 16.1899 19.2292 14.3899C20.5092 13.1099 21.2192 11.3899 21.2192 9.56992C21.2192 7.73992 20.5092 6.02992 19.2292 4.74992C17.9292 3.42992 16.1792 2.75992 14.4292 2.75992Z" stroke="none"/>
<path d="M9.19008 20.5402C9.00008 20.5402 8.81008 20.4702 8.66008 20.3202L6.36008 18.0202C6.07008 17.7302 6.07008 17.2502 6.36008 16.9602C6.65008 16.6702 7.13008 16.6702 7.42008 16.9602L9.72008 19.2602C10.0101 19.5502 10.0101 20.0302 9.72008 20.3202C9.57008 20.4702 9.38008 20.5402 9.19008 20.5402Z" stroke="none"/>
<path d="M14.5 11.75C13.26 11.75 12.25 10.74 12.25 9.5C12.25 8.26 13.26 7.25 14.5 7.25C15.74 7.25 16.75 8.26 16.75 9.5C16.75 10.74 15.74 11.75 14.5 11.75ZM14.5 8.75C14.09 8.75 13.75 9.09 13.75 9.5C13.75 9.91 14.09 10.25 14.5 10.25C14.91 10.25 15.25 9.91 15.25 9.5C15.25 9.09 14.91 8.75 14.5 8.75Z" stroke="none"/>
		</symbol>
		<!-- eye -->
		<symbol viewBox="0 0 24 24" id="eye-outline">
			<title>
				eye outline
			</title>
			<path d="M11.9999 16.3299C9.60992 16.3299 7.66992 14.3899 7.66992 11.9999C7.66992 9.60992 9.60992 7.66992 11.9999 7.66992C14.3899 7.66992 16.3299 9.60992 16.3299 11.9999C16.3299 14.3899 14.3899 16.3299 11.9999 16.3299ZM11.9999 9.16992C10.4399 9.16992 9.16992 10.4399 9.16992 11.9999C9.16992 13.5599 10.4399 14.8299 11.9999 14.8299C13.5599 14.8299 14.8299 13.5599 14.8299 11.9999C14.8299 10.4399 13.5599 9.16992 11.9999 9.16992Z" stroke="none" />
			<path d="M12.0001 21.02C8.24008 21.02 4.69008 18.82 2.25008 15C1.19008 13.35 1.19008 10.66 2.25008 8.99998C4.70008 5.17998 8.25008 2.97998 12.0001 2.97998C15.7501 2.97998 19.3001 5.17998 21.7401 8.99998C22.8001 10.65 22.8001 13.34 21.7401 15C19.3001 18.82 15.7501 21.02 12.0001 21.02ZM12.0001 4.47998C8.77008 4.47998 5.68008 6.41998 3.52008 9.80998C2.77008 10.98 2.77008 13.02 3.52008 14.19C5.68008 17.58 8.77008 19.52 12.0001 19.52C15.2301 19.52 18.3201 17.58 20.4801 14.19C21.2301 13.02 21.2301 10.98 20.4801 9.80998C18.3201 6.41998 15.2301 4.47998 12.0001 4.47998Z" stroke="none" />
		</symbol>




	</defs>
</svg>
