<svg xmlns="http://www.w3.org/2000/svg" xmlns:xlink="http://www.w3.org/1999/xlink">
	<defs>
		<!-- Search -->
		<symbol viewBox="0 0 24 24" id="search-linear">
			<title>
				search linear
			</title>
			<path d="M11.5 21.75C5.85 21.75 1.25 17.15 1.25 11.5C1.25 5.85 5.85 1.25 11.5 1.25C17.15 1.25 21.75 5.85 21.75 11.5C21.75 17.15 17.15 21.75 11.5 21.75ZM11.5 2.75C6.67 2.75 2.75 6.68 2.75 11.5C2.75 16.32 6.67 20.25 11.5 20.25C16.33 20.25 20.25 16.32 20.25 11.5C20.25 6.68 16.33 2.75 11.5 2.75Z" stroke="none" />
			<path d="M21.9995 22.7499C21.8095 22.7499 21.6195 22.6799 21.4695 22.5299L19.4695 20.5299C19.1795 20.2399 19.1795 19.7599 19.4695 19.4699C19.7595 19.1799 20.2395 19.1799 20.5295 19.4699L22.5295 21.4699C22.8195 21.7599 22.8195 22.2399 22.5295 22.5299C22.3795 22.6799 22.1895 22.7499 21.9995 22.7499Z" stroke="none" />
		</symbol>
		<!-- phone -->
		<symbol viewBox="0 0 24 24" id="phone-break">
			<title>
				phone break
			</title>
			<path d="M11.05 14.95L9.2 16.8C8.81 17.19 8.19 17.19 7.79 16.81C7.68 16.7 7.57 16.6 7.46 16.49C6.43 15.45 5.5 14.36 4.67 13.22C3.85 12.08 3.19 10.94 2.71 9.81C2.24 8.67 2 7.58 2 6.54C2 5.86 2.12 5.21 2.36 4.61C2.6 4 2.98 3.44 3.51 2.94C4.15 2.31 4.85 2 5.59 2C5.87 2 6.15 2.06 6.4 2.18C6.66 2.3 6.89 2.48 7.07 2.74L9.39 6.01C9.57 6.26 9.7 6.49 9.79 6.71C9.88 6.92 9.93 7.13 9.93 7.32C9.93 7.56 9.86 7.8 9.72 8.03C9.59 8.26 9.4 8.5 9.16 8.74L8.4 9.53C8.29 9.64 8.24 9.77 8.24 9.93C8.24 10.01 8.25 10.08 8.27 10.16C8.3 10.24 8.33 10.3 8.35 10.36C8.53 10.69 8.84 11.12 9.28 11.64C9.73 12.16 10.21 12.69 10.73 13.22C10.83 13.32 10.94 13.42 11.04 13.52C11.44 13.91 11.45 14.55 11.05 14.95Z" stroke="none" />
			<path d="M21.9696 18.33C21.9696 18.61 21.9196 18.9 21.8196 19.18C21.7896 19.26 21.7596 19.34 21.7196 19.42C21.5496 19.78 21.3296 20.12 21.0396 20.44C20.5496 20.98 20.0096 21.37 19.3996 21.62C19.3896 21.62 19.3796 21.63 19.3696 21.63C18.7796 21.87 18.1396 22 17.4496 22C16.4296 22 15.3396 21.76 14.1896 21.27C13.0396 20.78 11.8896 20.12 10.7496 19.29C10.3596 19 9.96961 18.71 9.59961 18.4L12.8696 15.13C13.1496 15.34 13.3996 15.5 13.6096 15.61C13.6596 15.63 13.7196 15.66 13.7896 15.69C13.8696 15.72 13.9496 15.73 14.0396 15.73C14.2096 15.73 14.3396 15.67 14.4496 15.56L15.2096 14.81C15.4596 14.56 15.6996 14.37 15.9296 14.25C16.1596 14.11 16.3896 14.04 16.6396 14.04C16.8296 14.04 17.0296 14.08 17.2496 14.17C17.4696 14.26 17.6996 14.39 17.9496 14.56L21.2596 16.91C21.5196 17.09 21.6996 17.3 21.8096 17.55C21.9096 17.8 21.9696 18.05 21.9696 18.33Z" stroke="none" />
		</symbol>
		<!-- instagram -->
		<symbol viewBox="0 0 24 24" id="instagram-bold">
			<title>
				instagram bold
			</title>
			<path d="M16.19 2H7.81C4.17 2 2 4.17 2 7.81V16.18C2 19.83 4.17 22 7.81 22H16.18C19.82 22 21.99 19.83 21.99 16.19V7.81C22 4.17 19.83 2 16.19 2ZM12 15.88C9.86 15.88 8.12 14.14 8.12 12C8.12 9.86 9.86 8.12 12 8.12C14.14 8.12 15.88 9.86 15.88 12C15.88 14.14 14.14 15.88 12 15.88ZM17.92 6.88C17.87 7 17.8 7.11 17.71 7.21C17.61 7.3 17.5 7.37 17.38 7.42C17.26 7.47 17.13 7.5 17 7.5C16.73 7.5 16.48 7.4 16.29 7.21C16.2 7.11 16.13 7 16.08 6.88C16.03 6.76 16 6.63 16 6.5C16 6.37 16.03 6.24 16.08 6.12C16.13 5.99 16.2 5.89 16.29 5.79C16.52 5.56 16.87 5.45 17.19 5.52C17.26 5.53 17.32 5.55 17.38 5.58C17.44 5.6 17.5 5.63 17.56 5.67C17.61 5.7 17.66 5.75 17.71 5.79C17.8 5.89 17.87 5.99 17.92 6.12C17.97 6.24 18 6.37 18 6.5C18 6.63 17.97 6.76 17.92 6.88Z" stroke="none" />
		</symbol>
		<!-- menu -->
		<symbol viewBox="0 0 24 24" id="menu-linear">
			<title>
				menu linear
			</title>
			<path d="M3 7H21" fill="none" stroke-width="1.5" stroke-linecap="round" />
			<path d="M3 12H21" fill="none" stroke-width="1.5" stroke-linecap="round" />
			<path d="M3 17H21" fill="none" stroke-width="1.5" stroke-linecap="round" />
		</symbol>
		<!-- shopping cart -->
		<symbol viewBox="0 0 24 24" id="shopping-cart-bold">
			<title>
				shopping cart bold
			</title>
			<path d="M16.25 22.5C17.2165 22.5 18 21.7165 18 20.75C18 19.7835 17.2165 19 16.25 19C15.2835 19 14.5 19.7835 14.5 20.75C14.5 21.7165 15.2835 22.5 16.25 22.5Z" stroke="none" />
			<path d="M8.25 22.5C9.2165 22.5 10 21.7165 10 20.75C10 19.7835 9.2165 19 8.25 19C7.2835 19 6.5 19.7835 6.5 20.75C6.5 21.7165 7.2835 22.5 8.25 22.5Z" stroke="none" />
			<path d="M4.84 3.94L4.64 6.39C4.6 6.86 4.97 7.25 5.44 7.25H20.75C21.17 7.25 21.52 6.93 21.55 6.51C21.68 4.74 20.33 3.3 18.56 3.3H6.27C6.17 2.86 5.97 2.44 5.66 2.09C5.16 1.56 4.46 1.25 3.74 1.25H2C1.59 1.25 1.25 1.59 1.25 2C1.25 2.41 1.59 2.75 2 2.75H3.74C4.05 2.75 4.34 2.88 4.55 3.1C4.76 3.33 4.86 3.63 4.84 3.94Z" stroke="none" />
			<path d="M20.5101 8.75H5.17005C4.75005 8.75 4.41005 9.07 4.37005 9.48L4.01005 13.83C3.87005 15.54 5.21005 17 6.92005 17H18.0401C19.5401 17 20.8601 15.77 20.9701 14.27L21.3001 9.6C21.3401 9.14 20.9801 8.75 20.5101 8.75Z" stroke="none" />
		</symbol>
		<!-- shopping cart -->
		<symbol viewBox="0 0 24 24" id="profile-twotone">
			<title>
				profile twotone
			</title>
			<path opacity="0.4" d="M12 2C9.38 2 7.25 4.13 7.25 6.75C7.25 9.32 9.26 11.4 11.88 11.49C11.96 11.48 12.04 11.48 12.1 11.49C12.12 11.49 12.13 11.49 12.15 11.49C12.16 11.49 12.16 11.49 12.17 11.49C14.73 11.4 16.74 9.32 16.75 6.75C16.75 4.13 14.62 2 12 2Z" fill="#292D32" />
			<path d="M17.0809 14.1499C14.2909 12.2899 9.74094 12.2899 6.93094 14.1499C5.66094 14.9999 4.96094 16.1499 4.96094 17.3799C4.96094 18.6099 5.66094 19.7499 6.92094 20.5899C8.32094 21.5299 10.1609 21.9999 12.0009 21.9999C13.8409 21.9999 15.6809 21.5299 17.0809 20.5899C18.3409 19.7399 19.0409 18.5999 19.0409 17.3599C19.0309 16.1299 18.3409 14.9899 17.0809 14.1499Z" fill="#154160" />
		</symbol>
		<!-- circle filled arrow -->
		<symbol viewBox="0 0 24 24" id="circle-filled-arrow-left">
			<title>
				circle filled arrow left
			</title>
			<path d="M12 2C6.49 2 2 6.49 2 12C2 17.51 6.49 22 12 22C17.51 22 22 17.51 22 12C22 6.49 17.51 2 12 2ZM13.79 15C14.08 15.29 14.08 15.77 13.79 16.06C13.64 16.21 13.45 16.28 13.26 16.28C13.07 16.28 12.88 16.21 12.73 16.06L9.2 12.53C8.91 12.24 8.91 11.76 9.2 11.47L12.73 7.94C13.02 7.65 13.5 7.65 13.79 7.94C14.08 8.23 14.08 8.71 13.79 9L10.79 12L13.79 15Z" stroke="none" />
		</symbol>
		<!-- tag -->
		<symbol viewBox="0 0 24 24" id="tag-outline">
			<title>
				tag outline
			</title>
			<path d="M12.0691 21.9802C10.6591 21.9802 9.23911 21.4402 8.16911 20.3702L3.63911 15.8402C2.53911 14.7402 1.95911 13.2202 2.02911 11.6702L2.26911 6.67018C2.37911 4.28018 4.26911 2.39018 6.66911 2.27018L11.6691 2.03018C13.2191 1.97018 14.7391 2.54018 15.8391 3.64018L20.3691 8.17018C22.5191 10.3202 22.5191 13.8302 20.3691 15.9802L15.9791 20.3702C14.8991 21.4402 13.4891 21.9802 12.0691 21.9802ZM4.69911 14.7702L9.22911 19.3002C9.98911 20.0602 10.9991 20.4802 12.0691 20.4802C13.1391 20.4802 14.1491 20.0602 14.9091 19.3002L19.2991 14.9102C20.0591 14.1502 20.4791 13.1402 20.4791 12.0702C20.4791 11.0002 20.0591 9.99018 19.2991 9.23018L14.7691 4.70018C13.9691 3.90018 12.8591 3.47018 11.7391 3.53018L6.73911 3.77018C5.10911 3.84018 3.83911 5.11018 3.75911 6.73018L3.51911 11.7302C3.46911 12.8602 3.89911 13.9702 4.69911 14.7702Z" stroke="none" />
			<path d="M9.5 12.75C7.71 12.75 6.25 11.29 6.25 9.5C6.25 7.71 7.71 6.25 9.5 6.25C11.29 6.25 12.75 7.71 12.75 9.5C12.75 11.29 11.29 12.75 9.5 12.75ZM9.5 7.75C8.54 7.75 7.75 8.54 7.75 9.5C7.75 10.46 8.54 11.25 9.5 11.25C10.46 11.25 11.25 10.46 11.25 9.5C11.25 8.54 10.46 7.75 9.5 7.75Z" stroke="none" />
		</symbol>
		<!-- tag -->
		<symbol viewBox="0 0 24 24" id="minus-outline">
			<title>
				minus outline
			</title>
			<path d="M18 12.75H6C5.59 12.75 5.25 12.41 5.25 12C5.25 11.59 5.59 11.25 6 11.25H18C18.41 11.25 18.75 11.59 18.75 12C18.75 12.41 18.41 12.75 18 12.75Z" stroke="none" />
		</symbol>
		<!-- plus -->
		<symbol viewBox="0 0 24 24" id="plus-outline">
			<title>
				plus outline
			</title>
			<path d="M18 12.75H6C5.59 12.75 5.25 12.41 5.25 12C5.25 11.59 5.59 11.25 6 11.25H18C18.41 11.25 18.75 11.59 18.75 12C18.75 12.41 18.41 12.75 18 12.75Z" stroke="none" />
			<path d="M12 18.75C11.59 18.75 11.25 18.41 11.25 18V6C11.25 5.59 11.59 5.25 12 5.25C12.41 5.25 12.75 5.59 12.75 6V18C12.75 18.41 12.41 18.75 12 18.75Z" stroke="none" />
		</symbol>
		<!-- categories -->
		<symbol viewBox="0 0 24 24" id="categories-outline">
			<title>
				categories outline
			</title>
			<path d="M22 10.9V4.1C22 2.6 21.36 2 19.77 2H15.73C14.14 2 13.5 2.6 13.5 4.1V10.9C13.5 12.4 14.14 13 15.73 13H19.77C21.36 13 22 12.4 22 10.9Z" fill="none" stroke-width="1.5" stroke-linecap="round" stroke-linejoin="round" />
			<path d="M22 19.9V18.1C22 16.6 21.36 16 19.77 16H15.73C14.14 16 13.5 16.6 13.5 18.1V19.9C13.5 21.4 14.14 22 15.73 22H19.77C21.36 22 22 21.4 22 19.9Z" fill="none" stroke-width="1.5" stroke-linecap="round" stroke-linejoin="round" />
			<path d="M10.5 13.1V19.9C10.5 21.4 9.86 22 8.27 22H4.23C2.64 22 2 21.4 2 19.9V13.1C2 11.6 2.64 11 4.23 11H8.27C9.86 11 10.5 11.6 10.5 13.1Z" fill="none" stroke-width="1.5" stroke-linecap="round" stroke-linejoin="round" />
			<path d="M10.5 4.1V5.9C10.5 7.4 9.86 8 8.27 8H4.23C2.64 8 2 7.4 2 5.9V4.1C2 2.6 2.64 2 4.23 2H8.27C9.86 2 10.5 2.6 10.5 4.1Z" fill="none" stroke-width="1.5" stroke-linecap="round" stroke-linejoin="round" />
		</symbol>
		<!-- discount -->
		<symbol viewBox="0 0 24 24" id="discount-outline">
			<title>
				discount outline
			</title>
			<path d="M12 22.7498C11.37 22.7498 10.78 22.5099 10.34 22.0599L8.82001 20.5399C8.70001 20.4199 8.38 20.2899 8.22 20.2899H6.06C4.76 20.2899 3.70999 19.2398 3.70999 17.9398V15.7799C3.70999 15.6199 3.57999 15.2999 3.45999 15.1799L1.94 13.6599C1.5 13.2199 1.25 12.6298 1.25 11.9998C1.25 11.3698 1.49 10.7798 1.94 10.3398L3.45999 8.81979C3.57999 8.69979 3.70999 8.37981 3.70999 8.21981V6.0599C3.70999 4.7599 4.76 3.7098 6.06 3.7098H8.22C8.38 3.7098 8.70001 3.5798 8.82001 3.4598L10.34 1.93979C11.22 1.05979 12.78 1.05979 13.66 1.93979L15.18 3.4598C15.3 3.5798 15.62 3.7098 15.78 3.7098H17.94C19.24 3.7098 20.29 4.7599 20.29 6.0599V8.21981C20.29 8.37981 20.42 8.69979 20.54 8.81979L22.06 10.3398C22.5 10.7798 22.75 11.3698 22.75 11.9998C22.75 12.6298 22.51 13.2199 22.06 13.6599L20.54 15.1799C20.42 15.2999 20.29 15.6199 20.29 15.7799V17.9398C20.29 19.2398 19.24 20.2899 17.94 20.2899H15.78C15.62 20.2899 15.3 20.4199 15.18 20.5399L13.66 22.0599C13.22 22.5099 12.63 22.7498 12 22.7498ZM4.51999 14.1198C4.91999 14.5198 5.20999 15.2199 5.20999 15.7799V17.9398C5.20999 18.4098 5.59 18.7899 6.06 18.7899H8.22C8.78 18.7899 9.48001 19.0798 9.88 19.4798L11.4 20.9998C11.72 21.3198 12.28 21.3198 12.6 20.9998L14.12 19.4798C14.52 19.0798 15.22 18.7899 15.78 18.7899H17.94C18.41 18.7899 18.79 18.4098 18.79 17.9398V15.7799C18.79 15.2199 19.08 14.5198 19.48 14.1198L21 12.5998C21.16 12.4398 21.25 12.2298 21.25 11.9998C21.25 11.7698 21.16 11.5599 21 11.3999L19.48 9.87985C19.08 9.47985 18.79 8.77981 18.79 8.21981V6.0599C18.79 5.5899 18.41 5.2098 17.94 5.2098H15.78C15.22 5.2098 14.52 4.91986 14.12 4.51986L12.6 2.99984C12.28 2.67984 11.72 2.67984 11.4 2.99984L9.88 4.51986C9.48001 4.91986 8.78 5.2098 8.22 5.2098H6.06C5.59 5.2098 5.20999 5.5899 5.20999 6.0599V8.21981C5.20999 8.77981 4.91999 9.47985 4.51999 9.87985L3 11.3999C2.84 11.5599 2.75 11.7698 2.75 11.9998C2.75 12.2298 2.84 12.4398 3 12.5998L4.51999 14.1198Z" stroke="none" />
			<path d="M15.0002 16C14.4402 16 13.9902 15.55 13.9902 15C13.9902 14.45 14.4402 14 14.9902 14C15.5402 14 15.9902 14.45 15.9902 15C15.9902 15.55 15.5502 16 15.0002 16Z" stroke="none" />
			<path d="M9.01001 10C8.45001 10 8 9.55 8 9C8 8.45 8.45 8 9 8C9.55 8 10 8.45 10 9C10 9.55 9.56001 10 9.01001 10Z" stroke="none" />
			<path d="M8.99945 15.75C8.80945 15.75 8.61945 15.68 8.46945 15.53C8.17945 15.24 8.17945 14.7599 8.46945 14.4699L14.4695 8.46994C14.7595 8.17994 15.2395 8.17994 15.5295 8.46994C15.8195 8.75994 15.8195 9.24 15.5295 9.53L9.52945 15.53C9.37945 15.68 9.18945 15.75 8.99945 15.75Z" stroke="none" />
		</symbol>
	</defs>
</svg>
