<svg width="24" height="24" viewBox="0 0 24 24" fill="none" xmlns="http://www.w3.org/2000/svg">
<path d="M21.9803 11.41C21.6403 5.60995 16.3703 1.13996 10.3003 2.13996C6.12029 2.82996 2.77029 6.21994 2.12029 10.3999C1.74029 12.8199 2.24031 15.1099 3.33031 16.9999L2.4403 20.3099C2.2403 21.0599 2.93028 21.7399 3.67028 21.5299L6.93029 20.63C8.41029 21.5 10.1403 21.9999 11.9903 21.9999C17.6303 21.9999 22.3103 17.03 21.9803 11.41ZM16.8803 15.7199C16.7903 15.8999 16.6803 16.07 16.5403 16.23C16.2903 16.5 16.0203 16.7 15.7203 16.82C15.4203 16.95 15.0903 17.01 14.7403 17.01C14.2303 17.01 13.6803 16.89 13.1103 16.64C12.5303 16.39 11.9603 16.0599 11.3903 15.6499C10.8103 15.2299 10.2703 14.7599 9.7503 14.2499C9.2303 13.7299 8.77027 13.1799 8.35027 12.6099C7.94027 12.0399 7.61029 11.4699 7.37029 10.8999C7.13029 10.3299 7.01031 9.77996 7.01031 9.25996C7.01031 8.91996 7.0703 8.58996 7.1903 8.28996C7.3103 7.97996 7.50032 7.69996 7.77032 7.44996C8.09032 7.12996 8.4403 6.97996 8.8103 6.97996C8.95029 6.97996 9.09027 7.00995 9.22027 7.06995C9.35027 7.12995 9.47029 7.21995 9.5603 7.34995L10.7203 8.98994C10.8103 9.11994 10.8803 9.22994 10.9203 9.33994C10.9703 9.44994 10.9903 9.54994 10.9903 9.64994C10.9903 9.76994 10.9503 9.88996 10.8803 10.01C10.8103 10.13 10.7203 10.2499 10.6003 10.3699L10.2203 10.7699C10.1603 10.8299 10.1403 10.8899 10.1403 10.9699C10.1403 11.0099 10.1503 11.0499 10.1603 11.0899C10.1803 11.1299 10.1903 11.16 10.2003 11.1899C10.2903 11.36 10.4503 11.5699 10.6703 11.8299C10.9003 12.0899 11.1403 12.3599 11.4003 12.6199C11.6703 12.8899 11.9303 13.1299 12.2003 13.3599C12.4603 13.5799 12.6803 13.73 12.8503 13.82C12.8803 13.83 12.9103 13.8499 12.9403 13.8599C12.9803 13.8799 13.0203 13.88 13.0703 13.88C13.1603 13.88 13.2203 13.85 13.2803 13.79L13.6603 13.41C13.7903 13.28 13.9103 13.19 14.0203 13.13C14.1403 13.06 14.2503 13.0199 14.3803 13.0199C14.4803 13.0199 14.5803 13.0399 14.6903 13.0899C14.8003 13.1399 14.9203 13.2 15.0403 13.29L16.7003 14.4699C16.8303 14.5599 16.9203 14.67 16.9803 14.79C17.0303 14.92 17.0603 15.0399 17.0603 15.1799C17.0003 15.3499 16.9603 15.5399 16.8803 15.7199Z" fill="black"/>
</svg>
