<svg width="24" height="24" viewBox="0 0 24 24" fill="none" xmlns="http://www.w3.org/2000/svg">
<path d="M16.192 2H7.81195C4.17195 2 2.00195 4.17 2.00195 7.81V16.18C2.00195 19.83 4.17195 22 7.81195 22H16.182C19.822 22 21.992 19.83 21.992 16.19V7.81C22.002 4.17 19.832 2 16.192 2ZM7.75195 9.14C7.75195 8.33 8.41195 7.66 9.23195 7.66C10.042 7.66 10.712 8.32 10.712 9.14C10.712 9.95 10.052 10.62 9.23195 10.62C8.41195 10.61 7.75195 9.95 7.75195 9.14ZM8.82195 16.02C8.63195 16.02 8.44195 15.95 8.29195 15.8C8.00195 15.51 8.00195 15.04 8.29195 14.74L14.842 8.19C15.132 7.9 15.612 7.9 15.902 8.19C16.192 8.48 16.192 8.96 15.902 9.25L9.35195 15.8C9.20195 15.95 9.01195 16.02 8.82195 16.02ZM15.772 16.34C14.962 16.34 14.292 15.68 14.292 14.86C14.292 14.05 14.952 13.38 15.772 13.38C16.582 13.38 17.252 14.04 17.252 14.86C17.252 15.68 16.592 16.34 15.772 16.34Z" fill="#292D32"/>
</svg>
