<svg width="24" height="24" viewBox="0 0 24 24" fill="none" xmlns="http://www.w3.org/2000/svg">
<path d="M19.002 15C16.792 15 15.002 16.79 15.002 19C15.002 19.75 15.212 20.46 15.582 21.06C16.272 22.22 17.542 23 19.002 23C20.462 23 21.732 22.22 22.422 21.06C22.792 20.46 23.002 19.75 23.002 19C23.002 16.79 21.212 15 19.002 15ZM21.072 18.57L18.942 20.54C18.802 20.67 18.612 20.74 18.432 20.74C18.242 20.74 18.052 20.67 17.902 20.52L16.912 19.53C16.622 19.24 16.622 18.76 16.912 18.47C17.202 18.18 17.682 18.18 17.972 18.47L18.452 18.95L20.052 17.47C20.352 17.19 20.832 17.21 21.112 17.51C21.392 17.81 21.372 18.28 21.072 18.57Z" fill="#292D32"/>
<path d="M22.002 7.5499V7.9999C22.002 8.5499 21.552 8.9999 21.002 8.9999H3.00195C2.45195 8.9999 2.00195 8.5499 2.00195 7.9999V7.5399C2.00195 5.2499 3.85195 3.3999 6.14195 3.3999H17.852C20.142 3.3999 22.002 5.2599 22.002 7.5499Z" fill="#292D32"/>
<path d="M2.00195 11.5002V16.4602C2.00195 18.7502 3.85195 20.6002 6.14195 20.6002H12.402C12.982 20.6002 13.482 20.1102 13.432 19.5302C13.292 18.0002 13.782 16.3402 15.142 15.0202C15.702 14.4702 16.392 14.0502 17.142 13.8102C18.392 13.4102 19.602 13.4602 20.672 13.8202C21.322 14.0402 22.002 13.5702 22.002 12.8802V11.4902C22.002 10.9402 21.552 10.4902 21.002 10.4902H3.00195C2.45195 10.5002 2.00195 10.9502 2.00195 11.5002ZM8.00195 17.2502H6.00195C5.59195 17.2502 5.25195 16.9102 5.25195 16.5002C5.25195 16.0902 5.59195 15.7502 6.00195 15.7502H8.00195C8.41195 15.7502 8.75195 16.0902 8.75195 16.5002C8.75195 16.9102 8.41195 17.2502 8.00195 17.2502Z" fill="#292D32"/>
</svg>
