<svg width="24" height="24" viewBox="0 0 24 24" fill="none" xmlns="http://www.w3.org/2000/svg">
<path d="M19.8324 8.6998L15.3024 4.1698C14.3524 3.2198 13.0424 2.7098 11.7024 2.7798L6.70242 3.0198C4.70242 3.1098 3.11242 4.6998 3.01242 6.6898L2.77242 11.6898C2.71242 13.0298 3.21242 14.3398 4.16242 15.2898L8.69242 19.8198C10.5524 21.6798 13.5724 21.6798 15.4424 19.8198L19.8324 15.4298C21.7024 13.5798 21.7024 10.5598 19.8324 8.6998ZM9.50242 12.3798C7.91242 12.3798 6.62242 11.0898 6.62242 9.4998C6.62242 7.9098 7.91242 6.6198 9.50242 6.6198C11.0924 6.6198 12.3824 7.9098 12.3824 9.4998C12.3824 11.0898 11.0924 12.3798 9.50242 12.3798Z" fill="#292D32"/>
</svg>
