<svg width="24" height="24" viewBox="0 0 24 24" fill="none" xmlns="http://www.w3.org/2000/svg">
<g clip-path="url(#clip0_124_1751)">
<path d="M20.6207 8.7C19.5807 4.07 15.5407 2 12.0007 2C12.0007 2 12.0007 2 11.9907 2C8.46073 2 4.43073 4.07 3.38073 8.69C2.20073 13.85 5.36073 18.22 8.22073 20.98C9.28073 22 10.6407 22.51 12.0007 22.51C13.3607 22.51 14.7207 22 15.7707 20.98C18.6307 18.22 21.7907 13.86 20.6207 8.7ZM15.2807 9.53L11.2807 13.53C11.1307 13.68 10.9407 13.75 10.7507 13.75C10.5607 13.75 10.3707 13.68 10.2207 13.53L8.72073 12.03C8.43073 11.74 8.43073 11.26 8.72073 10.97C9.01073 10.68 9.49073 10.68 9.78073 10.97L10.7507 11.94L14.2207 8.47C14.5107 8.18 14.9907 8.18 15.2807 8.47C15.5707 8.76 15.5707 9.24 15.2807 9.53Z" fill="#292D32"/>
</g>
<defs>
<clipPath id="clip0_124_1751">
<rect width="24" height="24" fill="white"/>
</clipPath>
</defs>
</svg>
