<svg width="24" height="24" viewBox="0 0 24 24" fill="none" xmlns="http://www.w3.org/2000/svg">
<path opacity="0.4" d="M16.19 2H7.81C4.17 2 2 4.17 2 7.81V16.19C2 19.83 4.17 22 7.81 22H16.19C19.83 22 22 19.83 22 16.19V7.81C22 4.17 19.83 2 16.19 2Z" fill="#292D32"/>
<path d="M18.3105 8.87012C18.3105 9.28012 17.9805 9.62012 17.5605 9.62012H12.3105C11.9005 9.62012 11.5605 9.28012 11.5605 8.87012C11.5605 8.46012 11.9005 8.12012 12.3105 8.12012H17.5605C17.9805 8.12012 18.3105 8.46012 18.3105 8.87012Z" fill="#292D32"/>
<path d="M9.97055 7.90006L7.72055 10.1501C7.57055 10.3001 7.38055 10.3701 7.19055 10.3701C7.00055 10.3701 6.80055 10.3001 6.66055 10.1501L5.91055 9.40006C5.61055 9.11006 5.61055 8.63006 5.91055 8.34006C6.20055 8.05006 6.67055 8.05006 6.97055 8.34006L7.19055 8.56006L8.91055 6.84006C9.20055 6.55006 9.67055 6.55006 9.97055 6.84006C10.2605 7.13006 10.2605 7.61006 9.97055 7.90006Z" fill="#292D32"/>
<path d="M18.3105 15.8701C18.3105 16.2801 17.9805 16.6201 17.5605 16.6201H12.3105C11.9005 16.6201 11.5605 16.2801 11.5605 15.8701C11.5605 15.4601 11.9005 15.1201 12.3105 15.1201H17.5605C17.9805 15.1201 18.3105 15.4601 18.3105 15.8701Z" fill="#292D32"/>
<path d="M9.97055 14.9001L7.72055 17.1501C7.57055 17.3001 7.38055 17.3701 7.19055 17.3701C7.00055 17.3701 6.80055 17.3001 6.66055 17.1501L5.91055 16.4001C5.61055 16.1101 5.61055 15.6301 5.91055 15.3401C6.20055 15.0501 6.67055 15.0501 6.97055 15.3401L7.19055 15.5601L8.91055 13.8401C9.20055 13.5501 9.67055 13.5501 9.97055 13.8401C10.2605 14.1301 10.2605 14.6101 9.97055 14.9001Z" fill="#292D32"/>
</svg>
