<svg width="24" height="24" viewBox="0 0 24 24" fill="none" xmlns="http://www.w3.org/2000/svg">
<path d="M15 12C15 10.34 13.66 9 12 9C10.34 9 9 10.34 9 12C9 13.66 10.34 15 12 15C12.41 15 12.81 14.92 13.17 14.76" stroke="#292D32" stroke-width="1.5" stroke-miterlimit="10" stroke-linecap="round" stroke-linejoin="round"/>
<path d="M6.88086 20.5798L7.97086 21.2098C8.76086 21.6798 9.78086 21.3998 10.2509 20.6098L10.3609 20.4198C11.2609 18.8498 12.7409 18.8498 13.6509 20.4198L13.7609 20.6098C14.2309 21.3998 15.2509 21.6798 16.0409 21.2098L17.7709 20.2198C18.6809 19.6998 18.9909 18.5298 18.4709 17.6298C17.5609 16.0598 18.3009 14.7798 20.1109 14.7798C21.1509 14.7798 22.0109 13.9298 22.0109 12.8798V11.1198C22.0109 10.0798 21.1609 9.21982 20.1109 9.21982C19.1009 9.21982 18.4209 8.81982 18.1809 8.18982C17.9909 7.69982 18.0709 7.05982 18.4709 6.36982C18.9909 5.45982 18.6809 4.29982 17.7709 3.77982L16.9609 3.31982" stroke="#292D32" stroke-width="1.5" stroke-miterlimit="10" stroke-linecap="round" stroke-linejoin="round"/>
<path d="M13.64 3.57994C12.74 5.14994 11.26 5.14994 10.35 3.57994L10.24 3.38994C9.78 2.59994 8.76 2.31994 7.97 2.78994L6.24 3.77994C5.33 4.29994 5.02 5.46994 5.54 6.37994C6.45 7.93994 5.71 9.21994 3.9 9.21994C2.86 9.21994 2 10.0699 2 11.1199V12.8799C2 13.9199 2.85 14.7799 3.9 14.7799C5.71 14.7799 6.45 16.0599 5.54 17.6299" stroke="#292D32" stroke-width="1.5" stroke-miterlimit="10" stroke-linecap="round" stroke-linejoin="round"/>
</svg>
