<svg width="24" height="24" viewBox="0 0 24 24" fill="none" xmlns="http://www.w3.org/2000/svg">
<path d="M21.5328 10.8699L20.0128 9.34988C19.7528 9.08988 19.5428 8.57988 19.5428 8.21988V6.05988C19.5428 5.17988 18.8228 4.45988 17.9428 4.45988H15.7928C15.4328 4.45988 14.9228 4.24988 14.6628 3.98988L13.1428 2.46988C12.5228 1.84988 11.5028 1.84988 10.8828 2.46988L9.34281 3.98988C9.09281 4.24988 8.58281 4.45988 8.21281 4.45988H6.06281C5.18281 4.45988 4.46281 5.17988 4.46281 6.05988V8.20988C4.46281 8.56988 4.25281 9.07988 3.99281 9.33988L2.47281 10.8599C1.85281 11.4799 1.85281 12.4999 2.47281 13.1199L3.99281 14.6399C4.25281 14.8999 4.46281 15.4099 4.46281 15.7699V17.9199C4.46281 18.7999 5.18281 19.5199 6.06281 19.5199H8.21281C8.57281 19.5199 9.08281 19.7299 9.34281 19.9899L10.8628 21.5099C11.4828 22.1299 12.5028 22.1299 13.1228 21.5099L14.6428 19.9899C14.9028 19.7299 15.4128 19.5199 15.7728 19.5199H17.9228C18.8028 19.5199 19.5228 18.7999 19.5228 17.9199V15.7699C19.5228 15.4099 19.7328 14.8999 19.9928 14.6399L21.5128 13.1199C22.1628 12.5099 22.1628 11.4899 21.5328 10.8699ZM8.00281 8.99988C8.00281 8.44988 8.45281 7.99988 9.00281 7.99988C9.55281 7.99988 10.0028 8.44988 10.0028 8.99988C10.0028 9.54988 9.56281 9.99988 9.00281 9.99988C8.45281 9.99988 8.00281 9.54988 8.00281 8.99988ZM9.53281 15.5299C9.38281 15.6799 9.19281 15.7499 9.00281 15.7499C8.81281 15.7499 8.62281 15.6799 8.47281 15.5299C8.18281 15.2399 8.18281 14.7599 8.47281 14.4699L14.4728 8.46988C14.7628 8.17988 15.2428 8.17988 15.5328 8.46988C15.8228 8.75988 15.8228 9.23988 15.5328 9.52988L9.53281 15.5299ZM15.0028 15.9999C14.4428 15.9999 13.9928 15.5499 13.9928 14.9999C13.9928 14.4499 14.4428 13.9999 14.9928 13.9999C15.5428 13.9999 15.9928 14.4499 15.9928 14.9999C15.9928 15.5499 15.5528 15.9999 15.0028 15.9999Z" fill="#292D32"/>
</svg>
